<svg xmlns="http://www.w3.org/2000/svg" version="1.1" xmlns:xlink="http://www.w3.org/1999/xlink" width="512" height="512" x="0" y="0" viewBox="0 0 500 500" style="enable-background:new 0 0 512 512" xml:space="preserve"><g><path fill-rule="evenodd" d="M427.383 425.965c-1.41 1.526-3.013 2.241-5.103 2.241h-21.872c-2.284 0-4.083-.885-5.492-2.693l-13.901-17.911c-3.84-4.904-9.332-7.602-15.554-7.602H247.107v-21.935H365.46c6.221 0 11.714-2.703 15.554-7.607l13.901-17.911c1.41-1.808 3.208-2.683 5.492-2.683h21.872c2.09 0 3.694.714 5.103 2.241l11.714 12.706h-27.073c-1.75 0-3.451.729-4.617 2.012l-16.72 17.863a6.373 6.373 0 0 0 0 8.695l16.72 17.863c1.166 1.288 2.868 2.017 4.617 2.017l27.073-.005zm-193.01-11.432c0 3.718-3.013 6.737-6.756 6.737h-14.97c-3.694 0-6.756-3.018-6.756-6.737v-5.565c0-.637.535-1.171 1.215-1.171h27.267zm-80.879-15.398c0 7.611 6.221 13.804 13.804 13.804h25.906v-3.971c0-7.66 6.221-13.901 13.901-13.901h27.267V376.51c0-10.051-8.166-18.236-18.227-18.236h-46.564c-8.846 0-16.088 7.223-16.088 16.098v24.763zm-11.276-33.8h-2.09v-41.28c0-20.428 8.798-38.84 22.796-51.672v31.238h-4.374c-3.499 0-6.367 2.848-6.367 6.363v41.445c-4.57 3.485-8.118 8.321-9.965 13.906zM134.538 400h6.27l-.049-21.935h-6.222c-6.221 0-11.714-2.703-15.553-7.607l-13.95-17.911c-1.361-1.808-3.159-2.683-5.492-2.683H77.719c-2.09 0-3.694.714-5.104 2.241L60.901 364.81h27.073c1.75 0 3.402.729 4.618 2.012l16.72 17.863a6.371 6.371 0 0 1 0 8.695l-16.72 17.863c-1.215 1.288-2.868 2.017-4.618 2.017l-27.073-.005 11.714 12.71c1.41 1.526 3.013 2.241 5.104 2.241h21.824c2.333 0 4.131-.885 5.492-2.693l13.95-17.911c3.839-4.904 9.331-7.602 15.553-7.602zm48.411-202.041H317.05c-2.965 17.303-12.443 32.721-26.781 43.249H209.73c-14.339-10.528-23.817-25.946-26.781-43.249zm-20.803-14.29V172.67c0-.846.68-1.56 1.556-1.56h175.95c.875 0 1.555.714 1.555 1.56v10.999c0 .851-.68 1.56-1.555 1.56h-175.95c-.876 0-1.556-.71-1.556-1.56zm58.423-89.681 4.131 41.144c.875 8.418 8.311 14.766 17.352 14.766H261.3c9.04 0 16.477-6.348 17.303-14.766l4.18-41.144c26.344 11.286 44.668 35.919 47.73 64.397H172.839c3.062-28.478 21.386-53.111 47.73-64.397zm13.318-19.612c-1.555 1.565-2.187 3.15-1.993 5.142l5.492 54.331c.195 1.861 2.236 3.32 4.666 3.32H261.3c2.43 0 4.471-1.458 4.666-3.32l5.492-54.331c.44-4.431-3.869-7.714-8.603-7.714h-22.358c-2.722 0-4.86.827-6.61 2.572zm-47.244 229.245h-10.985v-40.507c3.5-1.988 7.145-3.694 10.985-5.069zm126.713 0v-45.577c3.84 1.375 7.485 3.081 10.985 5.069v40.507h-10.985zm-103.091-49.694h79.469c3.694 0 7.339.297 10.887.86v48.833H199.377v-48.833a69.528 69.528 0 0 1 10.888-.86zm34.752 111.408h90.065v-48.984H164.916v29.586a28.131 28.131 0 0 1 4.666-.389h46.564c13.123 0 24.351 8.219 28.871 19.787zm114.805-41.28c0-20.428-8.749-38.84-22.747-51.672v31.238h4.374c3.5 0 6.367 2.848 6.367 6.363v55.351h12.005v-41.28zm93.808 76.47-38.835.01-10.742-11.5 10.742-11.495h38.835c5.549 0 8.422-6.652 4.715-10.683l-21.581-23.379c-3.84-4.151-8.846-6.338-14.484-6.338h-21.872c-6.173 0-11.714 2.698-15.505 7.592l-12.346 15.836v-36.512c0-39.594-27.899-72.781-65.082-80.937 12.103-12.224 19.977-27.957 22.455-45.159h9.721c7.874 0 14.29-6.406 14.29-14.29v-11c0-6.606-4.52-12.166-10.596-13.794-3.062-35.146-26.101-65.534-59.25-78.069v-.005c.632-5.867-1.361-11.233-5.687-15.51-4.131-4.034-9.527-6.221-15.554-6.221h-22.358c-6.027 0-11.422 2.187-15.554 6.221-4.326 4.277-6.319 9.653-5.687 15.51v.005c-33.149 12.535-56.187 42.923-59.25 78.069-6.076 1.628-10.596 7.189-10.596 13.794v10.999c0 7.884 6.416 14.29 14.29 14.29h6.367c2.479 17.201 10.353 32.935 22.455 45.159-37.183 8.156-65.082 41.344-65.082 80.937v36.512l-12.346-15.836c-3.791-4.895-9.332-7.592-15.554-7.592h-21.82c-5.638 0-10.645 2.187-14.484 6.338l-21.581 23.379c-3.7 4.023-.835 10.683 4.666 10.683h38.884l10.741 11.495-10.741 11.5-38.884-.01c-5.48-.001-8.372 6.654-4.666 10.683l21.581 23.384c3.84 4.151 8.846 6.338 14.484 6.338h21.824c6.221 0 11.762-2.698 15.554-7.602l13.95-17.911c1.41-1.808 3.208-2.688 5.492-2.688h10.013c4.618 7.743 13.075 12.939 22.747 12.939h29.406c3.5 5.03 9.332 8.331 15.943 8.331h14.97c10.742 0 19.491-8.729 19.491-19.466v-1.803h118.353c2.284 0 4.083.88 5.492 2.688l13.949 17.911c3.791 4.904 9.332 7.602 15.505 7.602h21.872c5.638 0 10.644-2.187 14.484-6.338l21.581-23.384c3.715-4.04.813-10.683-4.715-10.683z" clip-rule="evenodd" fill="#ffffff" opacity="1" data-original="#000000"></path></g></svg>