<?xml version="1.0" encoding="UTF-8" standalone="no"?>
<!-- Created with Inkscape (http://www.inkscape.org/) -->

<svg
   version="1.1"
   id="svg3102"
   width="682.66669"
   height="682.66669"
   viewBox="0 0 682.66669 682.66669"
   xmlns="http://www.w3.org/2000/svg"
   xmlns:svg="http://www.w3.org/2000/svg">
  <defs
     id="defs3106">
    <clipPath
       clipPathUnits="userSpaceOnUse"
       id="clipPath3116">
      <path
         d="M 0,512 H 512 V 0 H 0 Z"
         id="path3114" />
    </clipPath>
  </defs>
  <g
     id="g3108"
     transform="matrix(1.3333333,0,0,-1.3333333,0,682.66667)">
    <g
       id="g3110">
      <g
         id="g3112"
         clip-path="url(#clipPath3116)">
        <g
           id="g3118"
           transform="translate(480.0742,415.4502)">
          <path
             d="m 0,0 -33.613,33.613 -46.461,-75.063 -87.932,-58.582 v -53.248 c 0,-20.808 8.103,-40.37 22.817,-55.083 l 23.787,-23.787 c 14.366,-14.366 33.235,-21.548 52.105,-21.548 18.871,0 37.742,7.182 52.108,21.549 13.918,13.918 21.583,32.422 21.583,52.106 v 30.547 c 17.8,19.972 27.532,45.45 27.532,72.422 C 31.926,-47.959 20.588,-20.587 0,0"
             style="fill:#c6e1e4;fill-opacity:1;fill-rule:nonzero;stroke:none"
             id="path3120" />
        </g>
        <g
           id="g3122"
           transform="translate(389.9446,484.3673)">
          <path
             d="m 0,0 c -10.873,10.873 -28.269,11.587 -39.996,1.64 l -80.285,-68.093 c -13.169,-11.17 -13.991,-31.206 -1.78,-43.417 l 29.05,-29.05 63.066,42.553 52.9,73.413 z"
             style="fill:#fff5f5;fill-opacity:1;fill-rule:nonzero;stroke:none"
             id="path3124" />
        </g>
        <g
           id="g3126"
           transform="translate(412.8992,461.4128)">
          <path
             d="m 0,0 -115.966,-115.966 29.051,-29.051 c 12.211,-12.211 32.248,-11.389 43.417,1.781 l 68.094,80.285 c 9.946,11.727 9.232,29.123 -1.641,39.996 z"
             style="fill:#ddebf0;fill-opacity:1;fill-rule:nonzero;stroke:none"
             id="path3128" />
        </g>
        <path
           d="m 419.435,235.066 h -30 v 30 h 30 z"
           style="fill:#f20051;fill-opacity:1;fill-rule:nonzero;stroke:none"
           id="path3130" />
        <g
           id="g3132"
           transform="translate(278.4893,385.1045)">
          <path
             d="m 0,0 c -2.906,2.906 -4.414,6.77 -4.246,10.877 0.169,4.107 1.988,7.834 5.123,10.493 l 80.286,68.094 c 2.7,2.291 6.049,3.422 9.392,3.422 3.747,0 7.486,-1.423 10.294,-4.23 l 22.954,-22.954 14.708,5.194 6.505,16.019 -22.954,22.954 c -16.269,16.27 -42.757,17.357 -60.304,2.474 L -18.527,44.249 c -9.465,-8.027 -15.185,-19.743 -15.694,-32.143 -0.508,-12.4 4.233,-24.544 13.008,-33.319 l 18.444,-18.444 -275.584,-275.584 10.607,-10.607 206.257,196.744 90.54,100.053 z"
             style="fill:#00607f;fill-opacity:1;fill-rule:nonzero;stroke:none"
             id="path3134" />
        </g>
        <g
           id="g3136"
           transform="translate(446.4609,449.0635)">
          <path
             d="M 0,0 -22.956,22.956 -44.168,1.743 -21.213,-21.213 c 5.311,-5.311 5.666,-13.958 0.808,-19.686 l -68.094,-80.286 c -2.659,-3.134 -6.386,-4.954 -10.493,-5.123 -4.09,-0.164 -7.97,1.34 -10.878,4.247 l -29.051,29.051 -296.797,-296.797 10.607,-10.606 275.584,275.584 18.444,-18.444 c 8.348,-8.349 19.745,-13.046 31.511,-13.046 0.602,0 1.206,0.012 1.809,0.037 12.401,0.509 24.116,6.228 32.143,15.693 L 2.474,-60.305 C 17.355,-42.758 16.27,-16.27 0,0"
             style="fill:#00465f;fill-opacity:1;fill-rule:nonzero;stroke:none"
             id="path3138" />
        </g>
      </g>
    </g>
  </g>
</svg>
