<svg xmlns="http://www.w3.org/2000/svg" version="1.1" xmlns:xlink="http://www.w3.org/1999/xlink" width="512" height="512" x="0" y="0" viewBox="0 0 500 500" style="enable-background:new 0 0 512 512" xml:space="preserve" class=""><g><path fill-rule="evenodd" d="M234.142 277.518a6.349 6.349 0 0 1 6.362-6.362h54.146a6.359 6.359 0 0 1 6.362 6.362 6.365 6.365 0 0 1-6.362 6.362h-54.146a6.356 6.356 0 0 1-6.362-6.362zm-49.465 99.271a6.366 6.366 0 0 1-6.362 6.367h-14.606a6.363 6.363 0 0 1-6.363-6.367 6.356 6.356 0 0 1 6.363-6.362h14.606a6.358 6.358 0 0 1 6.362 6.362zm-40.697 0a6.366 6.366 0 0 1-6.363 6.367H99.39a6.363 6.363 0 0 1-6.362-6.367 6.355 6.355 0 0 1 6.362-6.362h38.228a6.358 6.358 0 0 1 6.362 6.362zm157.033 0a6.369 6.369 0 0 1-6.362 6.367h-26.154a6.369 6.369 0 0 1-6.362-6.367 6.362 6.362 0 0 1 6.362-6.362h26.154a6.36 6.36 0 0 1 6.362 6.362zm0-49.641a6.369 6.369 0 0 1-6.362 6.367h-26.154a6.365 6.365 0 0 1 0-12.729h26.154a6.365 6.365 0 0 1 6.362 6.362zm-76.859 46.097c-3.47-6.824-8.131-12.55-13.643-16.72 5.512-4.175 10.173-9.901 13.643-16.725 3.461 6.824 8.122 12.55 13.634 16.725-5.512 4.171-10.173 9.896-13.634 16.72zm29.207-22.829c-11.762-3.47-20.958-16.934-22.898-33.508-.864-7.443-11.765-7.43-12.632 0-1.935 16.574-11.14 30.038-22.893 33.508-6.053 1.785-6.058 10.43 0 12.214 11.762 3.466 20.958 16.934 22.893 33.513.868 7.436 11.768 7.449 12.632 0 1.939-16.579 11.135-30.048 22.898-33.513 6.057-1.784 6.053-10.432 0-12.214zM58.678 260.394c4.462-3.854 8.287-9.026 11.252-15.165 2.96 6.139 6.785 11.31 11.252 15.165-4.467 3.845-8.292 9.021-11.252 15.165-2.965-6.144-6.79-11.32-11.252-15.165zm11.252 45.489a6.355 6.355 0 0 0 6.328-5.726c1.648-16.511 9.595-30.388 19.33-33.746 5.69-1.975 5.69-10.071 0-12.035-9.736-3.359-17.683-17.24-19.33-33.747a6.36 6.36 0 0 0-12.661 0c-1.648 16.506-9.595 30.388-19.325 33.747-5.689 1.962-5.696 10.057 0 12.025 9.731 3.368 17.678 17.245 19.325 33.756a6.363 6.363 0 0 0 6.333 5.726zm358.749-104.369c-3.189-6.654-7.383-12.244-12.312-16.346 4.929-4.088 9.123-9.682 12.312-16.341 3.189 6.659 7.383 12.254 12.302 16.341-4.919 4.102-9.114 9.692-12.302 16.346zm26.99-22.378c-10.581-3.548-18.888-17.546-20.662-34.83-.782-7.546-11.891-7.54-12.662 0-1.779 17.284-10.086 31.282-20.667 34.83-5.759 1.938-5.752 10.144 0 12.073 10.586 3.548 18.888 17.551 20.667 34.835.774 7.563 11.889 7.562 12.662 0 1.774-17.284 10.081-31.287 20.662-34.835 5.761-1.931 5.781-10.124 0-12.073zm-96.714 217.518V201.849c23.588 15.034 35.715 43.161 38.913 89.433 3.383 49.019-10.037 85.176-38.913 105.372zm-21.945 45.975c-5.084 0-9.215-4.131-9.215-9.216V126.162h18.431v307.252c-.001 5.083-4.132 9.215-9.216 9.215zm-48.902-27.088c9.512 0 18.548-.695 26.956-2.071V188.24c-7.281-.788-15.111-1.186-23.802-1.186h-70.545l2.435 19.228a6.37 6.37 0 0 1-5.517 7.111c-3.448.434-6.669-1.987-7.111-5.517l-2.639-20.823h-51.862l2.435 19.228c.442 3.485-2.032 6.669-5.517 7.111-3.485.452-6.669-2.027-7.111-5.517l-2.63-20.745c-18.353 1.142-32.94 16.433-32.94 35.078 0 19.719 15.745 35.409 35.151 35.409h13.536c17.94 0 32.531 14.596 32.531 32.536v1.798c0 17.945-14.591 32.541-32.531 32.541h-48.731c-24.857 0-45.077 20.22-45.077 45.076v.894c0 24.857 20.22 45.076 45.077 45.076h177.892zm-87.075-282.633 1.813 14.338h-51.862l-1.818-14.338zm3.426 27.068 1.813 14.348H154.41l-1.818-14.348zm56.868-55.021-.51-5.381H409.12l-.52 5.381a9.32 9.32 0 0 1-9.313 8.477H270.645a9.323 9.323 0 0 1-9.318-8.477zM413.13 57.371l-2.804 29.479h-150.72l-2.809-29.479zM358.955 187.21v-61.048h40.332c11.442 0 20.895-8.598 21.984-20.001l5.201-54.549c.355-3.73-2.591-6.97-6.338-6.97H249.798c-3.748 0-6.693 3.242-6.343 6.97l5.206 54.549c1.084 11.403 10.538 20.001 21.984 20.001h44.42v49.276c-7.339-.749-15.194-1.113-23.802-1.113h-72.159l-2.727-21.508v-.01l-3.417-26.985c0-.058-.01-.117-.019-.17l-2.824-22.329c-1.688-13.343-13.945-22.845-27.287-21.158-10.363 1.317-18.737 9.089-20.852 19.34a6.358 6.358 0 0 0 4.948 7.519 6.362 6.362 0 0 0 7.519-4.948c1.748-8.493 11.73-12.23 18.601-6.907 2.474 1.925 4.054 4.676 4.443 7.752l1.93 15.257h-51.857l-2.139-16.856c-1.688-13.356-13.955-22.844-27.282-21.158-10.367 1.317-18.742 9.089-20.856 19.345a6.365 6.365 0 0 0 4.958 7.514 6.36 6.36 0 0 0 7.514-4.948c1.742-8.472 11.719-12.242 18.591-6.907 2.479 1.925 4.059 4.676 4.448 7.752l2.829 22.334c.005.058.014.127.024.185l3.402 26.893 2.552 20.162c-24.686 1.949-44.07 22.55-44.07 47.968 0 26.397 21.483 47.886 47.881 47.886h13.536c10.921 0 19.806 8.885 19.806 19.806v1.798c0 10.917-8.885 19.811-19.806 19.811h-48.731c-31.875 0-57.806 25.931-57.806 57.806v.894c0 31.875 25.931 57.806 57.806 57.806h177.889c9.429 0 18.465-.646 26.956-1.91v7.052c0 12.098 9.843 21.945 21.945 21.945 12.103 0 21.945-9.847 21.945-21.945v-21.687c37.757-21.741 55.595-63.59 51.604-121.328-3.79-54.951-19.767-87.011-51.603-103.186z" clip-rule="evenodd" fill="#ffffff" opacity="1" data-original="#000000" class=""></path></g></svg>