<svg xmlns="http://www.w3.org/2000/svg" version="1.1" xmlns:xlink="http://www.w3.org/1999/xlink" width="512" height="512" x="0" y="0" viewBox="0 0 500 500" style="enable-background:new 0 0 512 512" xml:space="preserve" class=""><g><path fill-rule="evenodd" d="M266.031 129.692a6.36 6.36 0 0 1 .102 9.001l-17.196 17.61c-2.348 2.395-6.153 2.561-8.691.399l-12.112-10.353a6.371 6.371 0 0 1-.705-8.973 6.371 6.371 0 0 1 8.972-.705l7.587 6.479 13.041-13.352a6.366 6.366 0 0 1 9.002-.106zm-66.754 74.774-17.206 17.615a6.358 6.358 0 0 1-8.691.389l-12.107-10.343a6.365 6.365 0 0 1 8.263-9.682l7.587 6.484 13.041-13.357a6.364 6.364 0 0 1 9.001-.102 6.362 6.362 0 0 1 .112 8.996zM91.5 138.261a6.366 6.366 0 0 1 8.972-.714l7.587 6.484 13.041-13.357a6.368 6.368 0 0 1 9.001-.102 6.355 6.355 0 0 1 .102 8.997l-17.196 17.615a6.36 6.36 0 0 1-8.691.389L92.204 147.23c-2.667-2.281-2.983-6.306-.704-8.969zm38.602 124.813a6.355 6.355 0 0 1 .102 8.997l-17.196 17.614a6.37 6.37 0 0 1-8.691.389L92.205 279.73a6.377 6.377 0 0 1-.705-8.977c2.284-2.664 6.299-2.989 8.972-.705l7.587 6.484 13.041-13.357a6.365 6.365 0 0 1 9.002-.101zm222.694-14.008c5.837-5.838 13.541-8.35 21.697-7.082 24.479 3.833 45.706-17.18 42.141-41.533l-20.823 20.822c-5.54 5.54-14.545 5.535-20.088 0l-11.082-11.087c-5.541-5.536-5.541-14.548 0-20.088l20.817-20.822c-24.359-3.577-45.371 17.706-41.538 42.14 1.278 8.151-1.23 15.865-7.067 21.702L202.83 367.132c-5.837 5.838-13.541 8.35-21.697 7.067-24.359-3.829-45.721 17.118-42.136 41.543l20.822-20.823c5.531-5.541 14.543-5.541 20.084 0l11.082 11.082c5.541 5.541 5.541 14.552 0 20.093l-20.813 20.817c24.296 3.579 45.356-17.647 41.538-42.131-.51-3.286.676-6.688 8.817-17.148 11.176-14.369 40.466-46.776 47.866-54.175zm-24.322 42.305c11.342 34.432-14.319 70.074-50.666 70.074a53.023 53.023 0 0 1-15.85-2.401c7.155-7.884 13.128-14.27 15.427-16.579zm38.384 4.778 13.05 4.243V315.8l-13.05 4.238a6.393 6.393 0 0 0-4.277 4.827c-2.207 11.233-6.576 21.765-12.973 31.302a6.374 6.374 0 0 0-.384 6.44l6.226 12.229-10.892 10.897-12.239-6.236a6.363 6.363 0 0 0-6.44.389c-9.536 6.397-20.064 10.766-31.292 12.973a6.382 6.382 0 0 0-4.831 4.277l-4.234 13.05h-15.417l-4.233-13.05a6.379 6.379 0 0 0-4.827-4.277 85.499 85.499 0 0 1-22.149-7.621c4.301-5.084 9.133-10.615 13.891-15.967 43.053 17.633 91.11-13.997 91.11-61.174 0-9.148-1.92-18.241-5.57-26.567l15.15-15.145a85.2 85.2 0 0 1 9.104 24.939 6.357 6.357 0 0 0 4.277 4.825zm-139.706 28.667c-11.339-34.549 14.4-70.074 50.656-70.074 5.696 0 11.354.923 16.725 2.688zm-38.378-4.772a6.37 6.37 0 0 1 4.277 4.821 85.191 85.191 0 0 0 9.104 24.944l15.145-15.15a66.331 66.331 0 0 1-5.565-26.563c0-36.434 29.649-66.083 66.074-66.083a66.387 66.387 0 0 1 26.572 5.575l15.155-15.155a85.373 85.373 0 0 0-24.949-9.108 6.384 6.384 0 0 1-4.831-4.272l-4.234-13.041h-15.417l-4.233 13.041a6.338 6.338 0 0 1-4.827 4.272 85.685 85.685 0 0 0-31.297 12.978 6.35 6.35 0 0 1-6.44.389l-12.234-6.236-10.897 10.907 6.231 12.224a6.363 6.363 0 0 1-.384 6.44c-6.397 9.532-10.771 20.069-12.973 31.302a6.383 6.383 0 0 1-4.287 4.822l-13.041 4.243V315.8zm-38.277-16.259v-54.797h39.283l3.626 7.121a97.889 97.889 0 0 0-12.049 29.071l-13.959 4.53a6.376 6.376 0 0 0-4.404 6.061v8.015h-12.497zm-14.81 0h2.08v-54.797H82.965v54.797zM82.965 181.451h54.802v54.807H82.965zm0-61.451v48.722h54.802v-54.797H82.965zm5.211-46.967h30.631v7.645c0 7.16 5.38 12.992 12 12.992h14.698c6.62 0 12.006-5.832 12.006-12.992v-7.645h40.775v7.645c0 7.16 5.385 12.992 12.005 12.992h14.698c6.615 0 11.996-5.832 11.996-12.992v-7.645h30.636c2.868 0 5.21 2.342 5.21 5.215v22.946H82.965V78.248a5.218 5.218 0 0 1 5.211-5.215zm43.36-20.094.02 28.001h13.201V52.687h-13.201c-.01.063-.02.15-.02.252zm79.479 0 .024 28.001h13.192V52.687H211.04a.894.894 0 0 0-.025.252zm61.816 111.763v-50.778h-54.802v54.797h54.802zm-122.334-50.778h54.807v54.797h-54.807zm37.411 121.702 17.396-17.391v-36.784h-54.807v54.807h36.867c.17-.219.35-.432.544-.632zm77.574-42.345a6.356 6.356 0 0 0-6.051 4.394l-4.54 13.969a98.05 98.05 0 0 0-29.061 12.049l-7.801-3.981V181.45h54.802v11.83h-7.349zm107.043 61.282c15.597 2.45 31.55-2.751 42.685-13.891 14.523-14.518 18.582-36.055 10.343-54.86-1.805-4.101-7.173-5.104-10.338-1.949l-28.4 28.41c-.57.562-1.517.568-2.085 0l-11.092-11.082c-.559-.569-.559-1.526 0-2.09l28.41-28.405c3.164-3.169 2.152-8.536-1.944-10.328-36.225-15.853-74.719 14.859-68.756 53.013.573 3.684-.292 6.936-2.567 9.701a97.718 97.718 0 0 0-28.045-11.446l-4.54-13.959a6.35 6.35 0 0 0-6.046-4.394h-4.593V78.248c0-9.891-8.044-17.945-17.935-17.945h-30.636v-7.364c0-7.159-5.381-12.982-11.996-12.982h-14.698c-6.62 0-12.005 5.823-12.005 12.982v7.364h-40.775v-7.364c0-7.159-5.386-12.982-12.006-12.982h-14.698c-6.62 0-12 5.823-12 12.982v7.364H88.176c-9.896 0-17.94 8.054-17.94 17.945v231.904a6.36 6.36 0 0 0 6.367 6.362h86.39v3.913a6.363 6.363 0 0 0 4.404 6.051l13.959 4.54a97.853 97.853 0 0 0 11.446 28.045c-2.766 2.275-6.017 3.135-9.702 2.561-15.588-2.445-31.54 2.751-42.69 13.891-14.518 14.523-18.572 36.06-10.334 54.865 1.797 4.095 7.169 5.109 10.334 1.944l28.405-28.4a1.491 1.491 0 0 1 2.095 0l11.082 11.082c.569.559.559 1.517 0 2.085l-28.41 28.41c-3.181 3.176-2.143 8.533 1.944 10.329 18.62 8.18 40.235 4.293 54.865-10.338 10.834-10.834 16.049-26.218 14.076-41.382.885-1.808 3.116-4.929 6.188-8.831 7.655 4.146 15.767 7.271 24.234 9.274l4.54 13.964a6.354 6.354 0 0 0 6.051 4.399h24.667a6.348 6.348 0 0 0 6.046-4.399l4.54-13.964a98.145 98.145 0 0 0 29.066-12.049l13.094 6.669a6.367 6.367 0 0 0 7.388-1.171l17.439-17.44a6.35 6.35 0 0 0 1.171-7.388l-6.669-13.084a98.217 98.217 0 0 0 12.049-29.071l13.959-4.54a6.356 6.356 0 0 0 4.399-6.051V295.77a6.365 6.365 0 0 0-4.399-6.061l-13.969-4.54a97.544 97.544 0 0 0-11.437-28.035c2.77-2.284 6.022-3.15 9.701-2.571z" clip-rule="evenodd" fill="#ffffff" opacity="1" data-original="#000000" class=""></path></g></svg>