<svg xmlns="http://www.w3.org/2000/svg" version="1.1" xmlns:xlink="http://www.w3.org/1999/xlink" width="512" height="512" x="0" y="0" viewBox="0 0 512 512" style="enable-background:new 0 0 512 512" xml:space="preserve" class=""><g transform="matrix(-1.8369701987210297e-16,1,-1,-1.8369701987210297e-16,512.0009465217591,-0.0004420280456542969)"><path d="m30.706 71.37 86.518 86.518-75.896 75.896a159.26 159.26 0 0 1-13.336-17.32c-27.941-41.943-33.8-94.23-17.566-140.516 2.98-8.521 13.888-10.969 20.28-4.578z" style="" fill="#4e7693" data-original="#4e7693"></path><path d="m101.501 142.166 15.722 15.722-75.896 75.896a159.26 159.26 0 0 1-13.336-17.32 25.54 25.54 0 0 1 3.38-4.169l70.13-70.129z" style="" fill="#385f82" data-original="#385f82"></path><path d="M210.68 38.896C174.262 2.478 121.956-8.366 76.075 6.362 67.331 9.169 64.676 20.26 71.17 26.754l77.94 77.94c2.4 2.4 2.4 6.291 0 8.691L40.788 221.708c-6.178 6.178-4.147 16.706 3.934 20.028 43.806 18.008 136.4 16.5 151.135 31.234l223.366 223.366c20.886 20.886 54.749 20.886 75.635 0 20.886-20.886 20.886-54.749 0-75.635L292.892 218.735c-25.379-25.379-41.238-58.968-43.612-94.781-2.054-30.981-14.92-61.378-38.6-85.058z" style="" fill="#b1c3c9" data-original="#b1c3c9"></path><path d="M510.522 458.513c0 3.933-.43 7.866-1.291 11.717-1.987-10.038-6.862-19.604-14.636-27.388L275.038 223.286c-25.381-25.381-41.236-58.966-43.612-94.783-2.048-30.973-14.913-61.373-38.593-85.053C160.825 11.442 116.558-.808 75.158 6.69c.297-.113.604-.225.922-.328 45.876-14.729 98.184-3.882 134.596 32.53 23.68 23.68 36.555 54.08 38.604 85.063 2.376 35.807 18.231 69.403 43.612 94.783l201.97 201.96c10.436 10.447 15.66 24.131 15.66 37.815z" style="" fill="#cfe1e5" data-original="#cfe1e5"></path><path d="m199.724 167.174-48.351 48.351a6.145 6.145 0 0 1-8.691 0l-23.272-23.272a6.145 6.145 0 0 1 0-8.691l48.351-48.351c2.4-2.4 6.291-2.4 8.691 0l23.272 23.272c2.4 2.4 2.4 6.291 0 8.691z" style="" fill="#4e7693" data-original="#4e7693"></path><path d="M165.959 208.621a7.658 7.658 0 0 1-5.432-2.25l-18.391-18.391A7.682 7.682 0 0 1 153 177.116l18.391 18.391a7.682 7.682 0 0 1-5.432 13.114zM185.139 189.441a7.658 7.658 0 0 1-5.432-2.25l-18.392-18.392a7.682 7.682 0 0 1 10.864-10.864l18.392 18.392a7.682 7.682 0 0 1-5.432 13.114z" style="" fill="#385f82" data-original="#385f82"></path><path d="M415.769 418.276c-7.736 7.736-20.279 7.736-28.015 0L224.28 254.802c-7.736-7.736-7.736-20.279 0-28.015 7.736-7.736 20.279-7.736 28.015 0l163.474 163.474c7.736 7.736 7.736 20.279 0 28.015z" style="" fill="#748789" data-original="#748789"></path><circle cx="455.16" cy="457.67" r="18.255" style="" fill="#4e7693" data-original="#4e7693"></circle></g></svg>